<svg id="svg" version="1.1" xmlns="http://www.w3.org/2000/svg" xmlns:xlink="http://www.w3.org/1999/xlink" width="400" height="400" viewBox="0, 0, 400,400"><g id="svgg"><path id="path0" d="M0.000 200.000 L 0.000 400.000 200.000 400.000 L 400.000 400.000 400.000 200.000 L 400.000 0.000 200.000 0.000 L 0.000 0.000 0.000 200.000 M123.263 96.020 C 133.979 106.440,146.400 118.749,146.400 118.948 C 146.400 119.423,143.643 122.005,142.768 122.349 C 142.235 122.559,141.139 123.013,140.331 123.357 L 138.863 123.984 125.390 110.546 C 110.343 95.537,110.408 95.625,112.725 93.290 C 116.775 89.207,116.069 89.025,123.263 96.020 M186.627 116.580 C 187.712 116.899,190.107 117.347,191.948 117.575 C 193.790 117.803,195.860 118.271,196.548 118.615 C 197.237 118.959,198.590 119.417,199.555 119.634 C 200.520 119.851,201.759 120.382,202.309 120.814 C 202.858 121.246,203.609 121.600,203.976 121.600 C 204.344 121.600,205.255 122.050,206.000 122.600 C 206.745 123.150,207.561 123.600,207.813 123.600 C 208.751 123.600,214.804 128.913,217.200 131.839 C 218.412 133.319,220.000 136.950,220.000 138.242 C 220.000 139.990,219.172 140.400,215.642 140.400 C 212.545 140.400,212.114 140.129,209.603 136.600 C 208.977 135.720,207.630 134.370,206.610 133.600 C 205.590 132.830,204.301 131.806,203.746 131.325 C 203.191 130.844,202.223 130.337,201.596 130.199 C 200.969 130.061,200.242 129.691,199.981 129.377 C 199.720 129.063,198.763 128.616,197.853 128.384 C 196.944 128.151,195.390 127.631,194.400 127.226 C 193.410 126.822,191.340 126.368,189.800 126.217 C 188.260 126.066,186.112 125.685,185.027 125.371 C 182.332 124.591,173.695 124.591,172.191 125.371 C 171.585 125.685,169.720 126.062,168.045 126.208 C 166.370 126.354,164.370 126.789,163.600 127.175 C 162.830 127.561,161.255 128.103,160.100 128.378 C 158.945 128.654,158.000 129.027,158.000 129.207 C 158.000 129.387,157.202 129.839,156.226 130.211 C 155.250 130.584,154.355 131.139,154.238 131.445 C 154.121 131.750,153.759 132.000,153.433 132.000 C 152.803 132.000,148.867 135.774,147.200 137.976 C 145.389 140.369,145.323 140.400,142.103 140.400 C 137.897 140.400,136.641 139.121,138.176 136.400 C 138.486 135.850,139.093 134.680,139.524 133.800 C 140.455 131.901,142.976 128.981,145.497 126.882 C 147.967 124.826,149.739 123.600,150.239 123.600 C 150.531 123.600,151.091 123.257,151.484 122.839 C 151.878 122.420,152.944 121.879,153.853 121.636 C 154.763 121.393,155.726 120.930,155.994 120.608 C 156.261 120.285,157.137 119.904,157.940 119.760 C 158.743 119.617,160.171 119.154,161.114 118.733 C 162.056 118.312,164.320 117.785,166.145 117.562 C 167.970 117.339,170.259 116.908,171.232 116.605 C 173.726 115.827,184.012 115.811,186.627 116.580 M237.371 119.626 C 239.555 119.838,241.895 120.290,242.571 120.631 C 243.247 120.971,244.687 121.420,245.772 121.628 C 246.857 121.836,248.027 122.258,248.372 122.566 C 248.717 122.874,249.769 123.330,250.708 123.580 C 251.648 123.831,253.014 124.432,253.745 124.918 C 254.476 125.403,255.835 126.250,256.766 126.800 C 260.082 128.761,264.800 133.299,264.800 134.528 C 264.800 134.792,265.137 135.218,265.550 135.476 C 265.962 135.733,266.426 136.451,266.581 137.072 C 266.736 137.692,267.097 138.470,267.384 138.800 C 269.478 141.209,268.239 142.400,263.639 142.400 L 260.135 142.400 258.968 140.954 C 256.577 137.993,253.321 134.895,251.883 134.213 C 251.067 133.826,250.400 133.363,250.400 133.185 C 250.400 133.008,249.725 132.645,248.900 132.380 C 248.075 132.116,247.123 131.658,246.784 131.363 C 246.445 131.069,245.190 130.618,243.997 130.362 C 242.803 130.106,241.136 129.537,240.294 129.098 C 238.921 128.382,237.735 128.278,228.881 128.092 C 217.858 127.861,218.894 128.123,215.045 124.600 C 212.449 122.224,211.733 120.971,212.680 120.464 C 215.310 119.057,227.320 118.649,237.371 119.626 M190.878 132.704 C 191.911 133.197,193.081 133.603,193.478 133.606 C 193.875 133.609,194.650 133.873,195.200 134.192 C 195.750 134.512,196.933 135.119,197.829 135.542 C 198.725 135.965,200.132 136.928,200.957 137.684 C 203.732 140.226,203.957 140.200,179.000 140.200 C 154.029 140.200,154.267 140.227,157.054 137.674 C 157.885 136.913,159.181 136.033,159.936 135.717 C 160.690 135.402,161.779 134.814,162.354 134.409 C 162.929 134.005,164.120 133.552,165.000 133.402 C 165.880 133.251,166.794 132.968,167.031 132.772 C 168.852 131.269,187.757 131.214,190.878 132.704 M234.879 132.484 C 235.390 132.819,236.771 133.299,237.947 133.551 C 239.124 133.804,240.541 134.368,241.097 134.805 C 241.653 135.242,242.432 135.600,242.828 135.600 C 244.234 135.600,247.320 138.852,246.599 139.573 C 245.815 140.358,226.193 140.743,224.419 140.008 C 222.414 139.177,220.327 133.467,221.561 132.186 C 222.435 131.278,233.413 131.523,234.879 132.484 M284.554 143.088 C 285.349 143.907,286.000 144.745,286.000 144.951 C 286.000 145.156,286.411 145.881,286.914 146.562 C 287.416 147.243,288.049 148.250,288.320 148.800 C 288.591 149.350,289.344 150.610,289.993 151.600 C 290.643 152.590,291.636 154.210,292.201 155.200 C 294.049 158.438,297.836 164.627,300.099 168.109 C 300.703 169.039,301.467 170.340,301.796 171.000 C 302.126 171.660,303.021 173.190,303.785 174.400 C 304.549 175.610,305.547 177.230,306.001 178.000 C 306.455 178.770,307.356 180.210,308.002 181.200 C 308.648 182.190,309.558 183.756,310.023 184.680 C 310.488 185.603,311.123 186.570,311.434 186.829 C 311.746 187.087,312.000 187.522,312.000 187.795 C 312.000 188.068,312.374 188.768,312.831 189.349 C 315.891 193.239,315.157 198.000,311.497 198.000 C 309.204 198.000,308.743 197.482,304.013 189.600 C 303.551 188.830,302.645 187.390,301.999 186.400 C 301.354 185.410,300.368 183.790,299.809 182.800 C 299.250 181.810,298.574 180.640,298.306 180.200 C 298.039 179.760,297.436 178.770,296.966 178.000 C 296.497 177.230,295.593 175.737,294.956 174.682 C 294.320 173.627,293.013 171.557,292.052 170.082 C 291.090 168.607,290.189 167.130,290.048 166.800 C 289.748 166.095,287.635 162.560,285.984 160.000 C 285.346 159.010,284.442 157.444,283.977 156.520 C 283.512 155.597,282.877 154.630,282.566 154.371 C 282.254 154.113,282.000 153.716,282.000 153.489 C 282.000 153.261,281.550 152.486,281.000 151.764 C 280.450 151.043,280.000 150.296,280.000 150.104 C 280.000 149.912,279.550 149.145,279.000 148.400 C 275.611 143.807,280.609 139.027,284.554 143.088 M121.284 144.805 C 122.270 146.022,122.185 148.267,121.090 149.978 C 119.833 151.942,119.364 152.722,118.191 154.800 C 117.632 155.790,116.641 157.410,115.988 158.400 C 115.336 159.390,114.522 160.740,114.180 161.400 C 113.838 162.060,112.946 163.590,112.199 164.800 C 111.452 166.010,110.465 167.630,110.007 168.400 C 109.548 169.170,108.640 170.610,107.988 171.600 C 107.336 172.590,106.535 173.973,106.207 174.673 C 105.880 175.373,105.435 176.055,105.217 176.189 C 105.000 176.323,104.458 177.191,104.012 178.117 C 103.566 179.042,102.661 180.610,102.002 181.600 C 101.342 182.590,100.542 183.954,100.224 184.632 C 99.906 185.309,99.366 186.096,99.023 186.381 C 98.680 186.665,98.399 187.101,98.399 187.349 C 98.398 187.597,97.993 188.419,97.499 189.176 C 96.206 191.157,94.977 193.178,94.017 194.903 C 91.066 200.207,87.630 201.397,85.444 197.871 C 84.672 196.626,85.420 192.979,86.658 191.952 C 86.961 191.700,87.567 190.753,88.004 189.847 C 88.441 188.941,89.336 187.390,89.993 186.400 C 90.650 185.410,91.408 184.150,91.678 183.600 C 91.948 183.050,92.581 182.091,93.084 181.469 C 93.588 180.847,94.000 180.104,94.000 179.818 C 94.000 179.532,94.254 179.087,94.566 178.829 C 94.877 178.570,95.512 177.603,95.977 176.680 C 96.442 175.756,97.357 174.190,98.010 173.200 C 98.663 172.210,99.465 170.827,99.793 170.127 C 100.120 169.427,100.550 168.755,100.747 168.632 C 100.945 168.510,101.493 167.643,101.965 166.705 C 102.437 165.767,103.352 164.190,103.998 163.200 C 104.644 162.210,105.545 160.770,105.999 160.000 C 106.453 159.230,107.451 157.610,108.215 156.400 C 108.979 155.190,109.874 153.660,110.204 153.000 C 110.533 152.340,111.336 150.990,111.988 150.000 C 112.640 149.010,113.534 147.542,113.975 146.738 C 115.734 143.533,119.457 142.549,121.284 144.805 M273.525 149.956 C 273.858 150.912,273.773 151.343,273.030 152.456 C 271.189 155.213,268.328 159.889,267.681 161.200 C 267.409 161.750,266.656 163.010,266.007 164.000 C 265.358 164.990,264.455 166.430,264.000 167.200 C 263.545 167.970,262.640 169.410,261.988 170.400 C 261.336 171.390,260.522 172.740,260.180 173.400 C 259.838 174.060,258.946 175.590,258.199 176.800 C 255.621 180.974,253.492 184.530,252.450 186.400 C 252.021 187.170,251.093 188.385,250.388 189.100 L 249.105 190.400 202.212 190.400 C 151.167 190.400,153.314 190.500,151.972 188.056 C 151.533 187.255,150.644 185.790,149.998 184.800 C 149.352 183.810,148.437 182.233,147.965 181.295 C 147.493 180.357,146.945 179.490,146.747 179.368 C 146.550 179.245,146.120 178.573,145.793 177.873 C 145.465 177.173,144.663 175.790,144.010 174.800 C 143.357 173.810,142.442 172.244,141.977 171.320 C 141.512 170.397,140.877 169.430,140.566 169.171 C 140.254 168.913,140.000 168.468,140.000 168.182 C 140.000 167.896,139.588 167.153,139.084 166.531 C 138.581 165.909,137.948 164.950,137.678 164.400 C 137.408 163.850,136.650 162.590,135.993 161.600 C 135.336 160.610,134.441 159.059,134.004 158.153 C 133.567 157.247,132.937 156.280,132.605 156.004 C 132.272 155.728,131.997 155.299,131.993 155.051 C 131.989 154.803,131.466 153.834,130.831 152.897 C 129.680 151.198,129.580 149.772,130.565 149.106 C 130.804 148.944,162.977 148.809,202.061 148.806 L 273.122 148.800 273.525 149.956 M132.425 172.400 C 132.898 172.400,133.526 173.016,134.092 174.034 C 134.591 174.933,135.279 176.148,135.620 176.734 C 135.960 177.320,136.833 178.835,137.558 180.100 C 138.283 181.365,139.042 182.502,139.244 182.627 C 139.447 182.752,139.880 183.427,140.207 184.127 C 140.535 184.827,141.337 186.210,141.990 187.200 C 142.643 188.190,143.558 189.756,144.023 190.680 C 144.488 191.603,145.123 192.570,145.434 192.829 C 145.746 193.087,146.000 193.531,146.000 193.815 C 146.000 194.714,148.915 197.437,151.167 198.641 L 153.334 199.800 201.967 199.800 L 250.600 199.800 252.247 198.919 C 255.427 197.217,256.435 196.076,260.300 189.800 C 260.571 189.360,261.250 188.190,261.809 187.200 C 262.368 186.210,263.357 184.590,264.007 183.600 C 264.656 182.610,265.409 181.350,265.680 180.800 C 265.951 180.250,266.584 179.243,267.086 178.562 C 267.589 177.881,268.000 177.139,268.000 176.911 C 268.000 176.684,268.272 176.272,268.605 175.996 C 268.937 175.720,269.557 174.708,269.982 173.747 C 270.807 171.883,271.212 171.650,271.991 172.590 C 272.618 173.344,272.268 176.716,270.966 182.471 C 270.435 184.820,270.000 187.346,270.000 188.084 C 270.000 188.822,269.723 190.410,269.384 191.613 C 269.045 192.816,268.524 195.510,268.226 197.600 C 267.928 199.690,267.401 202.390,267.054 203.600 C 266.708 204.810,266.238 207.348,266.009 209.240 C 265.780 211.132,265.333 213.562,265.016 214.640 C 264.699 215.718,264.256 218.085,264.031 219.900 C 263.806 221.715,263.353 224.145,263.025 225.300 C 262.696 226.455,262.246 228.885,262.025 230.700 C 261.803 232.515,261.342 235.035,260.999 236.300 C 260.656 237.565,260.194 239.275,259.972 240.100 L 259.568 241.600 247.970 241.600 L 236.372 241.600 235.557 239.700 C 235.109 238.655,234.472 236.630,234.141 235.200 C 233.809 233.770,233.308 232.330,233.026 232.000 C 232.744 231.670,232.314 230.806,232.070 230.080 C 231.603 228.686,231.155 228.044,227.548 223.595 C 224.872 220.294,220.779 216.828,218.559 215.984 C 217.936 215.748,217.169 215.339,216.855 215.077 C 216.270 214.589,212.262 213.115,209.400 212.336 C 203.639 210.769,190.456 212.480,186.846 215.264 C 186.321 215.669,185.675 216.000,185.409 216.000 C 185.143 216.000,183.593 216.990,181.965 218.199 C 180.337 219.409,178.913 220.444,178.801 220.499 C 178.107 220.844,174.246 225.888,172.325 228.960 C 171.540 230.215,170.264 233.448,169.073 237.200 L 167.740 241.400 156.025 241.400 L 144.310 241.400 143.549 239.000 C 143.131 237.680,142.440 234.339,142.013 231.575 C 141.586 228.811,141.052 226.063,140.826 225.468 C 140.600 224.873,140.213 222.725,139.967 220.693 C 139.721 218.662,139.259 216.231,138.941 215.291 C 138.622 214.351,138.184 212.011,137.966 210.091 C 137.748 208.171,137.309 205.718,136.989 204.640 C 136.669 203.562,136.220 201.132,135.991 199.240 C 135.762 197.348,135.312 194.990,134.992 194.000 C 134.672 193.010,134.145 190.310,133.819 188.000 C 133.494 185.690,132.972 182.810,132.659 181.600 C 132.345 180.390,131.901 177.960,131.670 176.200 C 131.439 174.440,131.150 172.370,131.026 171.600 C 130.811 170.262,130.820 170.249,131.234 171.300 C 131.494 171.961,131.969 172.400,132.425 172.400 M204.600 218.446 C 205.480 218.681,207.460 219.147,209.000 219.482 C 210.540 219.817,212.084 220.340,212.431 220.645 C 212.779 220.950,213.235 221.200,213.445 221.200 C 213.897 221.200,217.483 223.495,218.612 224.507 C 221.952 227.501,222.058 227.630,225.335 232.622 C 225.921 233.513,226.400 234.506,226.400 234.827 C 226.400 235.149,226.804 236.129,227.298 237.006 C 229.297 240.554,228.561 251.315,225.931 257.000 C 223.938 261.310,218.588 267.223,215.740 268.265 C 215.333 268.414,214.491 268.956,213.869 269.468 C 213.247 269.981,212.345 270.400,211.863 270.400 C 211.382 270.400,210.271 270.789,209.394 271.265 C 207.147 272.483,198.319 272.828,195.600 271.804 C 194.610 271.431,192.900 270.872,191.800 270.562 C 190.700 270.253,189.620 269.761,189.400 269.470 C 189.180 269.179,188.442 268.747,187.760 268.512 C 186.530 268.087,186.022 267.685,182.817 264.600 C 180.079 261.963,177.623 258.737,177.607 257.754 C 177.603 257.509,177.248 256.860,176.817 256.313 C 176.370 255.744,175.852 254.135,175.609 252.559 C 175.375 251.041,174.914 248.695,174.585 247.345 C 174.178 245.680,174.104 244.578,174.355 243.919 C 174.558 243.385,175.013 241.407,175.366 239.523 C 177.127 230.123,186.348 220.562,194.769 219.404 C 195.926 219.245,197.351 218.865,197.936 218.560 C 199.197 217.902,202.360 217.848,204.600 218.446 M166.274 248.780 C 167.867 249.751,168.228 250.449,168.532 253.155 C 168.666 254.340,169.040 255.603,169.364 255.961 C 169.689 256.319,170.123 257.363,170.329 258.282 C 170.535 259.200,171.086 260.437,171.552 261.030 C 172.018 261.623,172.400 262.280,172.400 262.491 C 172.400 263.514,178.602 270.362,180.966 271.949 C 183.591 273.711,185.333 274.742,186.800 275.400 C 187.570 275.746,188.940 276.382,189.845 276.815 C 190.923 277.330,192.783 277.689,195.245 277.855 C 197.310 277.995,199.448 278.338,199.995 278.616 C 200.798 279.024,201.185 279.024,201.995 278.616 C 202.548 278.337,204.710 277.985,206.800 277.833 C 209.214 277.657,211.183 277.278,212.200 276.792 C 213.080 276.372,214.430 275.742,215.200 275.393 C 219.965 273.230,226.027 268.213,227.639 265.100 C 228.067 264.275,228.580 263.600,228.781 263.600 C 228.982 263.600,229.266 263.195,229.413 262.700 C 229.560 262.205,230.095 261.170,230.602 260.400 C 231.110 259.630,231.652 258.370,231.807 257.600 C 231.962 256.830,232.350 255.904,232.669 255.541 C 232.988 255.179,233.403 253.791,233.592 252.456 C 234.213 248.066,234.435 247.988,246.287 248.040 C 258.677 248.094,259.164 248.361,257.303 254.072 C 256.850 255.462,256.374 258.000,256.244 259.712 C 256.114 261.424,255.749 263.325,255.432 263.937 C 255.116 264.550,254.651 266.919,254.400 269.203 C 254.148 271.486,253.685 274.085,253.371 274.977 C 253.056 275.870,252.600 278.400,252.357 280.600 C 252.114 282.800,251.651 285.230,251.329 286.000 C 251.007 286.770,250.578 289.020,250.375 291.000 C 250.173 292.980,249.726 295.351,249.383 296.269 C 249.039 297.187,248.722 298.717,248.679 299.669 L 248.600 301.400 267.290 301.600 L 285.981 301.800 287.190 303.125 C 289.022 305.131,288.893 307.062,286.799 308.953 L 285.198 310.400 188.186 310.400 C 83.448 310.400,89.370 310.521,87.852 308.353 C 86.768 306.805,87.343 303.252,88.894 301.908 C 88.952 301.858,103.490 301.723,121.200 301.608 L 153.400 301.400 153.294 300.000 C 153.235 299.230,152.928 297.943,152.612 297.139 C 152.296 296.335,151.855 293.896,151.631 291.718 C 151.408 289.539,150.947 287.092,150.607 286.279 C 150.268 285.467,149.889 283.406,149.765 281.701 C 149.641 279.995,149.204 277.610,148.794 276.400 C 148.384 275.190,147.857 272.490,147.623 270.400 C 147.388 268.310,146.932 265.844,146.608 264.921 C 146.283 263.997,145.850 261.454,145.645 259.270 C 145.439 257.085,144.985 254.744,144.635 254.068 C 143.387 251.654,143.980 248.706,145.800 248.280 C 148.586 247.628,165.043 248.029,166.274 248.780 M310.847 303.153 C 312.883 305.189,312.931 306.633,311.031 308.706 L 309.662 310.200 304.185 310.340 C 294.874 310.579,292.400 309.624,292.400 305.792 C 292.400 302.452,294.338 301.656,302.547 301.625 L 309.294 301.600 310.847 303.153 " stroke="none" fill="#1c2b3b" fill-rule="evenodd"></path><path id="path1" d="M115.917 91.884 C 114.425 92.633,112.400 94.724,112.400 95.516 C 112.400 96.151,135.907 120.064,138.088 121.647 C 139.482 122.660,141.826 122.127,143.997 120.304 L 145.461 119.075 138.230 111.841 C 134.254 107.863,130.280 104.005,129.400 103.268 C 128.520 102.532,125.370 99.547,122.400 96.635 C 117.066 91.405,116.987 91.347,115.917 91.884 M145.623 250.301 C 144.810 250.959,144.793 251.086,145.337 252.401 C 145.655 253.170,146.105 255.571,146.338 257.735 C 146.570 259.899,146.932 261.879,147.143 262.135 C 147.353 262.391,147.643 263.500,147.786 264.600 C 148.495 270.026,148.947 272.664,149.278 273.314 C 149.479 273.706,149.906 276.031,150.228 278.479 C 150.550 280.928,151.058 283.666,151.358 284.565 C 151.658 285.464,152.026 287.460,152.177 289.000 C 152.328 290.540,152.782 293.060,153.187 294.600 C 154.322 298.916,154.492 301.051,153.761 301.782 C 153.214 302.329,149.536 302.400,121.741 302.400 L 90.338 302.400 89.169 303.569 C 87.523 305.215,87.583 306.841,89.338 308.180 L 90.676 309.200 187.764 309.200 L 284.853 309.200 286.227 308.153 C 288.039 306.770,288.056 305.399,286.281 303.678 L 284.962 302.400 266.910 302.400 C 246.008 302.400,247.401 302.673,247.836 298.656 C 247.983 297.305,248.352 295.448,248.657 294.529 C 248.962 293.610,249.476 290.860,249.798 288.419 C 250.120 285.977,250.577 283.617,250.813 283.176 C 251.049 282.734,251.514 280.180,251.845 277.499 C 252.175 274.819,252.622 272.414,252.838 272.155 C 253.053 271.895,253.473 269.709,253.771 267.297 C 254.069 264.885,254.498 262.564,254.725 262.140 C 254.952 261.717,255.428 259.135,255.783 256.403 C 256.139 253.672,256.513 251.353,256.616 251.251 C 258.180 249.686,238.546 248.627,235.600 250.118 C 234.753 250.546,234.551 251.017,234.282 253.194 C 234.107 254.608,233.635 256.312,233.233 256.982 C 232.831 257.652,232.387 258.690,232.246 259.290 C 231.991 260.375,230.782 262.443,229.221 264.463 C 228.770 265.048,228.400 265.735,228.400 265.990 C 228.400 266.552,223.615 271.322,222.092 272.276 C 221.492 272.653,220.730 273.200,220.400 273.491 C 219.323 274.440,216.903 275.914,215.941 276.206 C 215.424 276.363,214.460 276.812,213.800 277.203 C 213.140 277.595,211.790 278.037,210.800 278.185 C 209.810 278.334,208.100 278.745,207.000 279.100 C 204.355 279.952,196.240 279.947,194.556 279.091 C 193.920 278.768,192.500 278.375,191.400 278.217 C 190.300 278.059,188.860 277.606,188.200 277.210 C 187.540 276.815,186.576 276.363,186.059 276.206 C 185.173 275.937,184.057 275.274,180.848 273.111 C 178.537 271.553,173.864 266.633,172.457 264.277 C 171.719 263.040,170.876 261.829,170.583 261.586 C 170.291 261.343,169.928 260.572,169.777 259.872 C 169.626 259.173,169.189 257.970,168.805 257.200 C 168.422 256.430,167.988 255.080,167.840 254.200 C 167.035 249.390,167.584 249.600,155.825 249.600 C 147.525 249.600,146.393 249.678,145.623 250.301 M294.760 303.642 C 293.391 305.109,293.290 306.441,294.427 308.038 L 295.254 309.200 302.049 309.200 L 308.843 309.200 310.221 308.100 C 311.991 306.688,311.989 305.562,310.213 303.787 L 308.827 302.400 302.374 302.400 L 295.921 302.400 294.760 303.642 " stroke="none" fill="#cf5b5b" fill-rule="evenodd"></path><path id="path2" d="M168.552 118.414 C 166.391 118.592,164.515 118.968,163.952 119.337 C 163.428 119.679,162.190 120.079,161.200 120.226 C 159.559 120.469,156.555 121.642,154.000 123.039 C 153.450 123.340,152.372 123.880,151.603 124.239 C 150.835 124.598,149.696 125.321,149.073 125.846 C 148.449 126.371,147.702 126.800,147.412 126.800 C 147.123 126.800,146.781 127.073,146.653 127.406 C 146.525 127.739,145.966 128.185,145.410 128.396 C 144.855 128.607,144.400 129.044,144.400 129.367 C 144.400 129.690,144.085 130.191,143.700 130.481 C 141.947 131.799,139.600 136.007,139.600 137.833 C 139.600 139.121,144.968 139.361,145.371 138.092 C 145.941 136.294,153.298 129.600,154.703 129.600 C 154.980 129.600,155.515 129.241,155.891 128.802 C 156.267 128.363,157.210 127.891,157.987 127.753 C 158.764 127.615,159.975 127.156,160.677 126.733 C 161.380 126.309,163.090 125.784,164.477 125.566 C 165.865 125.348,167.810 124.861,168.800 124.484 C 171.445 123.479,186.555 123.479,189.200 124.484 C 190.190 124.861,192.135 125.348,193.523 125.566 C 194.910 125.784,196.642 126.331,197.370 126.781 C 198.098 127.232,199.024 127.600,199.426 127.600 C 199.828 127.600,200.797 128.009,201.578 128.510 C 202.360 129.010,203.288 129.595,203.640 129.810 C 207.076 131.903,209.716 134.269,211.800 137.121 C 212.959 138.706,213.079 138.764,215.286 138.781 C 218.669 138.809,219.137 136.782,216.516 133.456 C 216.031 132.839,215.526 131.998,215.396 131.587 C 215.266 131.177,214.817 130.733,214.400 130.600 C 213.983 130.467,213.530 130.008,213.394 129.580 C 213.257 129.151,212.978 128.800,212.773 128.800 C 212.568 128.800,211.997 128.395,211.504 127.900 C 210.115 126.504,208.362 125.288,206.475 124.410 C 205.526 123.968,204.478 123.335,204.146 123.003 C 203.814 122.672,203.130 122.400,202.625 122.400 C 202.121 122.400,201.245 122.036,200.680 121.591 C 200.114 121.146,198.605 120.593,197.326 120.360 C 196.047 120.128,194.586 119.672,194.079 119.346 C 192.266 118.181,177.812 117.653,168.552 118.414 M216.200 120.735 C 214.548 121.107,214.433 122.372,215.918 123.856 C 217.897 125.835,218.689 126.000,226.239 126.000 C 231.635 126.000,233.502 126.136,234.384 126.592 C 235.013 126.917,237.087 127.360,238.993 127.577 C 241.210 127.829,242.933 128.264,243.776 128.785 C 244.501 129.233,245.568 129.600,246.147 129.600 C 246.726 129.600,247.539 129.939,247.954 130.354 C 248.368 130.768,249.336 131.315,250.105 131.569 C 250.874 131.823,251.823 132.383,252.214 132.815 C 252.604 133.247,253.115 133.600,253.348 133.600 C 253.581 133.600,254.138 133.950,254.586 134.377 C 256.812 136.502,258.328 138.138,259.598 139.786 C 261.086 141.716,262.443 142.051,265.941 141.352 L 267.182 141.104 266.391 140.098 C 265.956 139.545,265.600 138.597,265.600 137.992 C 265.600 137.260,265.265 136.673,264.600 136.237 C 264.050 135.876,263.600 135.352,263.600 135.071 C 263.600 134.283,258.403 129.218,256.708 128.353 C 255.879 127.930,255.200 127.422,255.200 127.224 C 255.200 127.026,254.642 126.741,253.959 126.591 C 253.277 126.441,252.400 126.000,252.012 125.612 C 251.623 125.223,250.390 124.686,249.272 124.417 C 248.154 124.149,247.041 123.690,246.798 123.397 C 246.555 123.104,245.061 122.649,243.478 122.385 C 241.895 122.120,240.060 121.611,239.400 121.252 C 238.127 120.560,218.886 120.132,216.200 120.735 M172.400 132.747 C 171.630 132.915,170.640 133.247,170.200 133.486 C 169.760 133.725,168.500 134.044,167.400 134.195 C 164.339 134.615,160.023 136.779,160.010 137.900 L 160.000 138.800 179.000 138.800 L 198.000 138.800 198.000 137.819 C 198.000 137.032,197.714 136.759,196.553 136.438 C 195.757 136.218,194.793 135.755,194.410 135.409 C 194.028 135.063,192.564 134.581,191.158 134.338 C 189.751 134.095,188.060 133.619,187.400 133.281 C 186.056 132.592,174.929 132.195,172.400 132.747 M222.586 132.823 C 222.198 133.450,222.676 134.961,223.903 136.994 L 224.994 138.800 234.097 138.800 L 243.200 138.800 243.200 137.818 C 243.200 137.012,242.948 136.789,241.797 136.573 C 241.025 136.428,239.950 135.961,239.407 135.534 C 238.865 135.108,237.308 134.580,235.947 134.360 C 234.585 134.141,232.472 133.610,231.250 133.181 C 228.807 132.322,223.042 132.084,222.586 132.823 M195.693 220.399 C 194.283 220.598,192.753 221.094,192.196 221.531 C 191.652 221.959,190.575 222.428,189.803 222.573 C 189.032 222.718,188.400 223.003,188.400 223.208 C 188.400 223.412,187.905 223.837,187.300 224.151 C 185.876 224.892,180.892 229.876,180.151 231.300 C 179.837 231.905,179.425 232.400,179.237 232.400 C 179.049 232.400,178.680 233.255,178.417 234.300 C 178.155 235.345,177.615 236.740,177.218 237.400 C 175.694 239.937,175.927 251.748,177.554 254.418 C 178.018 255.178,178.398 256.089,178.399 256.442 C 178.399 256.794,178.836 257.554,179.369 258.129 C 179.902 258.704,180.468 259.585,180.626 260.087 C 180.785 260.589,181.249 261.235,181.657 261.523 C 182.066 261.810,182.400 262.299,182.400 262.609 C 182.400 262.918,182.756 263.362,183.191 263.595 C 183.626 263.828,184.481 264.477,185.091 265.037 C 187.087 266.871,187.384 267.074,188.755 267.538 C 189.500 267.790,190.310 268.270,190.555 268.604 C 190.800 268.938,192.027 269.378,193.281 269.581 C 194.536 269.785,195.937 270.152,196.393 270.396 C 198.109 271.315,203.586 271.357,206.600 270.476 C 208.140 270.025,210.050 269.550,210.845 269.420 C 211.640 269.291,212.613 268.828,213.007 268.392 C 213.401 267.956,214.046 267.600,214.439 267.600 C 214.833 267.600,215.390 267.267,215.677 266.860 C 215.965 266.452,216.740 265.827,217.400 265.470 C 218.060 265.113,219.188 264.141,219.907 263.310 C 222.498 260.315,223.600 258.888,223.600 258.525 C 223.600 258.322,224.050 257.545,224.600 256.800 C 225.150 256.055,225.604 254.895,225.609 254.222 C 225.614 253.550,226.002 252.190,226.472 251.200 C 227.681 248.656,227.673 242.792,226.457 239.437 C 225.985 238.138,225.600 236.653,225.600 236.137 C 225.600 235.622,225.226 234.826,224.768 234.368 C 224.310 233.910,223.740 232.965,223.500 232.268 C 223.259 231.571,222.734 230.765,222.331 230.477 C 221.929 230.190,221.600 229.773,221.600 229.550 C 221.600 228.967,216.905 224.400,216.305 224.400 C 216.027 224.399,215.277 223.949,214.638 223.400 C 213.999 222.850,213.296 222.400,213.076 222.400 C 212.857 222.400,211.729 221.951,210.570 221.403 C 208.159 220.263,200.377 219.737,195.693 220.399 " stroke="none" fill="#f5f5f6" fill-rule="evenodd"></path><path id="path3" d="M115.400 90.938 C 109.577 95.135,109.202 94.398,125.390 110.546 L 138.863 123.984 140.331 123.357 C 141.139 123.013,142.235 122.559,142.768 122.349 C 143.643 122.005,146.400 119.423,146.400 118.948 C 146.400 118.532,117.517 90.286,116.959 90.156 C 116.762 90.110,116.060 90.462,115.400 90.938 M129.400 103.268 C 130.280 104.005,134.254 107.863,138.230 111.841 L 145.461 119.075 143.997 120.304 C 139.756 123.865,140.372 124.241,124.700 108.514 C 111.662 95.430,111.735 95.527,113.617 93.644 C 116.510 90.752,116.342 90.695,122.400 96.635 C 125.370 99.547,128.520 102.532,129.400 103.268 M279.611 142.045 C 277.627 142.837,277.312 146.112,279.000 148.400 C 279.550 149.145,280.000 149.912,280.000 150.104 C 280.000 150.296,280.450 151.043,281.000 151.764 C 281.550 152.486,282.000 153.261,282.000 153.489 C 282.000 153.716,282.254 154.113,282.566 154.371 C 282.877 154.630,283.512 155.597,283.977 156.520 C 284.442 157.444,285.346 159.010,285.984 160.000 C 287.635 162.560,289.748 166.095,290.048 166.800 C 290.189 167.130,291.090 168.607,292.052 170.082 C 293.013 171.557,294.320 173.627,294.956 174.682 C 295.593 175.737,296.497 177.230,296.966 178.000 C 297.436 178.770,298.039 179.760,298.306 180.200 C 298.574 180.640,299.250 181.810,299.809 182.800 C 300.368 183.790,301.354 185.410,301.999 186.400 C 302.645 187.390,303.551 188.830,304.013 189.600 C 308.743 197.482,309.204 198.000,311.497 198.000 C 315.157 198.000,315.891 193.239,312.831 189.349 C 312.374 188.768,312.000 188.068,312.000 187.795 C 312.000 187.522,311.746 187.087,311.434 186.829 C 311.123 186.570,310.488 185.603,310.023 184.680 C 309.558 183.756,308.648 182.190,308.002 181.200 C 307.356 180.210,306.455 178.770,306.001 178.000 C 305.547 177.230,304.549 175.610,303.785 174.400 C 303.021 173.190,302.126 171.660,301.796 171.000 C 301.467 170.340,300.703 169.039,300.099 168.109 C 297.836 164.627,294.049 158.438,292.201 155.200 C 291.636 154.210,290.643 152.590,289.993 151.600 C 289.344 150.610,288.591 149.350,288.320 148.800 C 288.049 148.250,287.416 147.243,286.914 146.562 C 286.411 145.881,286.000 145.156,286.000 144.951 C 286.000 142.926,281.982 141.099,279.611 142.045 M115.889 144.399 C 115.278 144.881,114.417 145.934,113.975 146.738 C 113.534 147.542,112.640 149.010,111.988 150.000 C 111.336 150.990,110.533 152.340,110.204 153.000 C 109.874 153.660,108.979 155.190,108.215 156.400 C 107.451 157.610,106.453 159.230,105.999 160.000 C 105.545 160.770,104.644 162.210,103.998 163.200 C 103.352 164.190,102.437 165.767,101.965 166.705 C 101.493 167.643,100.945 168.510,100.747 168.632 C 100.550 168.755,100.120 169.427,99.793 170.127 C 99.465 170.827,98.663 172.210,98.010 173.200 C 97.357 174.190,96.442 175.756,95.977 176.680 C 95.512 177.603,94.877 178.570,94.566 178.829 C 94.254 179.087,94.000 179.532,94.000 179.818 C 94.000 180.104,93.588 180.847,93.084 181.469 C 92.581 182.091,91.948 183.050,91.678 183.600 C 91.408 184.150,90.650 185.410,89.993 186.400 C 89.336 187.390,88.441 188.941,88.004 189.847 C 87.567 190.753,86.961 191.700,86.658 191.952 C 85.420 192.979,84.672 196.626,85.444 197.871 C 87.630 201.397,91.066 200.207,94.017 194.903 C 94.977 193.178,96.206 191.157,97.499 189.176 C 97.993 188.419,98.398 187.597,98.399 187.349 C 98.399 187.101,98.680 186.665,99.023 186.381 C 99.366 186.096,99.906 185.309,100.224 184.632 C 100.542 183.954,101.342 182.590,102.002 181.600 C 102.661 180.610,103.566 179.042,104.012 178.117 C 104.458 177.191,105.000 176.323,105.217 176.189 C 105.435 176.055,105.880 175.373,106.207 174.673 C 106.535 173.973,107.336 172.590,107.988 171.600 C 108.640 170.610,109.548 169.170,110.007 168.400 C 110.465 167.630,111.452 166.010,112.199 164.800 C 112.946 163.590,113.838 162.060,114.180 161.400 C 114.522 160.740,115.336 159.390,115.988 158.400 C 116.641 157.410,117.632 155.790,118.191 154.800 C 119.364 152.722,119.833 151.942,121.090 149.978 C 123.697 145.905,119.579 141.487,115.889 144.399 M130.565 149.106 C 129.580 149.772,129.680 151.198,130.831 152.897 C 131.466 153.834,131.989 154.803,131.993 155.051 C 131.997 155.299,132.272 155.728,132.605 156.004 C 132.937 156.280,133.567 157.247,134.004 158.153 C 134.441 159.059,135.336 160.610,135.993 161.600 C 136.650 162.590,137.408 163.850,137.678 164.400 C 137.948 164.950,138.581 165.909,139.084 166.531 C 139.588 167.153,140.000 167.896,140.000 168.182 C 140.000 168.468,140.254 168.913,140.566 169.171 C 140.877 169.430,141.512 170.397,141.977 171.320 C 142.442 172.244,143.357 173.810,144.010 174.800 C 144.663 175.790,145.465 177.173,145.793 177.873 C 146.120 178.573,146.550 179.245,146.747 179.368 C 146.945 179.490,147.493 180.357,147.965 181.295 C 148.437 182.233,149.352 183.810,149.998 184.800 C 150.644 185.790,151.533 187.255,151.972 188.056 C 153.314 190.500,151.167 190.400,202.212 190.400 L 249.105 190.400 250.388 189.100 C 251.093 188.385,252.021 187.170,252.450 186.400 C 253.492 184.530,255.621 180.974,258.199 176.800 C 258.946 175.590,259.838 174.060,260.180 173.400 C 260.522 172.740,261.336 171.390,261.988 170.400 C 262.640 169.410,263.545 167.970,264.000 167.200 C 264.455 166.430,265.358 164.990,266.007 164.000 C 266.656 163.010,267.409 161.750,267.681 161.200 C 268.328 159.889,271.189 155.213,273.030 152.456 C 273.773 151.343,273.858 150.912,273.525 149.956 L 273.122 148.800 202.061 148.806 C 162.977 148.809,130.804 148.944,130.565 149.106 M131.026 171.600 C 131.150 172.370,131.439 174.440,131.670 176.200 C 131.901 177.960,132.345 180.390,132.659 181.600 C 132.972 182.810,133.494 185.690,133.819 188.000 C 134.145 190.310,134.672 193.010,134.992 194.000 C 135.312 194.990,135.762 197.348,135.991 199.240 C 136.220 201.132,136.669 203.562,136.989 204.640 C 137.309 205.718,137.748 208.171,137.966 210.091 C 138.184 212.011,138.622 214.351,138.941 215.291 C 139.259 216.231,139.721 218.662,139.967 220.693 C 140.213 222.725,140.600 224.873,140.826 225.468 C 141.052 226.063,141.586 228.811,142.013 231.575 C 142.440 234.339,143.131 237.680,143.549 239.000 L 144.310 241.400 156.025 241.400 L 167.740 241.400 169.073 237.200 C 170.264 233.448,171.540 230.215,172.325 228.960 C 174.246 225.888,178.107 220.844,178.801 220.499 C 178.913 220.444,180.337 219.409,181.965 218.199 C 183.593 216.990,185.143 216.000,185.409 216.000 C 185.675 216.000,186.321 215.669,186.846 215.264 C 190.456 212.480,203.639 210.769,209.400 212.336 C 212.262 213.115,216.270 214.589,216.855 215.077 C 217.169 215.339,217.936 215.748,218.559 215.984 C 220.779 216.828,224.872 220.294,227.548 223.595 C 231.155 228.044,231.603 228.686,232.070 230.080 C 232.314 230.806,232.744 231.670,233.026 232.000 C 233.308 232.330,233.809 233.770,234.141 235.200 C 234.472 236.630,235.109 238.655,235.557 239.700 L 236.372 241.600 247.970 241.600 L 259.568 241.600 259.972 240.100 C 260.194 239.275,260.656 237.565,260.999 236.300 C 261.342 235.035,261.803 232.515,262.025 230.700 C 262.246 228.885,262.696 226.455,263.025 225.300 C 263.353 224.145,263.806 221.715,264.031 219.900 C 264.256 218.085,264.699 215.718,265.016 214.640 C 265.333 213.562,265.780 211.132,266.009 209.240 C 266.238 207.348,266.708 204.810,267.054 203.600 C 267.401 202.390,267.928 199.690,268.226 197.600 C 268.524 195.510,269.045 192.816,269.384 191.613 C 269.723 190.410,270.000 188.822,270.000 188.084 C 270.000 187.346,270.435 184.820,270.966 182.471 C 272.268 176.716,272.618 173.344,271.991 172.590 C 271.212 171.650,270.807 171.883,269.982 173.747 C 269.557 174.708,268.937 175.720,268.605 175.996 C 268.272 176.272,268.000 176.684,268.000 176.911 C 268.000 177.139,267.589 177.881,267.086 178.562 C 266.584 179.243,265.951 180.250,265.680 180.800 C 265.409 181.350,264.656 182.610,264.007 183.600 C 263.357 184.590,262.368 186.210,261.809 187.200 C 261.250 188.190,260.571 189.360,260.300 189.800 C 256.435 196.076,255.427 197.217,252.247 198.919 L 250.600 199.800 201.967 199.800 L 153.334 199.800 151.167 198.641 C 148.915 197.437,146.000 194.714,146.000 193.815 C 146.000 193.531,145.746 193.087,145.434 192.829 C 145.123 192.570,144.488 191.603,144.023 190.680 C 143.558 189.756,142.643 188.190,141.990 187.200 C 141.337 186.210,140.535 184.827,140.207 184.127 C 139.880 183.427,139.447 182.752,139.244 182.627 C 139.042 182.502,138.283 181.365,137.558 180.100 C 136.833 178.835,135.960 177.320,135.620 176.734 C 135.279 176.148,134.591 174.933,134.092 174.034 C 133.526 173.016,132.898 172.400,132.425 172.400 C 131.969 172.400,131.494 171.961,131.234 171.300 C 130.820 170.249,130.811 170.262,131.026 171.600 M145.800 248.280 C 143.980 248.706,143.387 251.654,144.635 254.068 C 144.985 254.744,145.439 257.085,145.645 259.270 C 145.850 261.454,146.283 263.997,146.608 264.921 C 146.932 265.844,147.388 268.310,147.623 270.400 C 147.857 272.490,148.384 275.190,148.794 276.400 C 149.204 277.610,149.641 279.995,149.765 281.701 C 149.889 283.406,150.268 285.467,150.607 286.279 C 150.947 287.092,151.408 289.539,151.631 291.718 C 151.855 293.896,152.296 296.335,152.612 297.139 C 152.928 297.943,153.235 299.230,153.294 300.000 L 153.400 301.400 121.200 301.608 C 103.490 301.723,88.952 301.858,88.894 301.908 C 87.343 303.252,86.768 306.805,87.852 308.353 C 89.370 310.521,83.448 310.400,188.186 310.400 L 285.198 310.400 286.799 308.953 C 288.893 307.062,289.022 305.131,287.190 303.125 L 285.981 301.800 267.290 301.600 L 248.600 301.400 248.679 299.669 C 248.722 298.717,249.039 297.187,249.383 296.269 C 249.726 295.351,250.173 292.980,250.375 291.000 C 250.578 289.020,251.007 286.770,251.329 286.000 C 251.651 285.230,252.114 282.800,252.357 280.600 C 252.600 278.400,253.056 275.870,253.371 274.977 C 253.685 274.085,254.148 271.486,254.400 269.203 C 254.651 266.919,255.116 264.550,255.432 263.937 C 255.749 263.325,256.114 261.424,256.244 259.712 C 256.374 258.000,256.850 255.462,257.303 254.072 C 259.164 248.361,258.677 248.094,246.287 248.040 C 234.435 247.988,234.213 248.066,233.592 252.456 C 233.403 253.791,232.988 255.179,232.669 255.541 C 232.350 255.904,231.962 256.830,231.807 257.600 C 231.652 258.370,231.110 259.630,230.602 260.400 C 230.095 261.170,229.560 262.205,229.413 262.700 C 229.266 263.195,228.982 263.600,228.781 263.600 C 228.580 263.600,228.067 264.275,227.639 265.100 C 226.027 268.213,219.965 273.230,215.200 275.393 C 214.430 275.742,213.080 276.372,212.200 276.792 C 211.183 277.278,209.214 277.657,206.800 277.833 C 204.710 277.985,202.548 278.337,201.995 278.616 C 201.185 279.024,200.798 279.024,199.995 278.616 C 199.448 278.338,197.310 277.995,195.245 277.855 C 192.783 277.689,190.923 277.330,189.845 276.815 C 188.940 276.382,187.570 275.746,186.800 275.400 C 185.333 274.742,183.591 273.711,180.966 271.949 C 178.602 270.362,172.400 263.514,172.400 262.491 C 172.400 262.280,172.018 261.623,171.552 261.030 C 171.086 260.437,170.535 259.200,170.329 258.282 C 170.123 257.363,169.689 256.319,169.364 255.961 C 169.040 255.603,168.666 254.340,168.532 253.155 C 167.976 248.218,167.411 247.991,155.800 248.048 C 150.740 248.073,146.240 248.177,145.800 248.280 M166.162 250.055 C 167.143 250.503,167.277 250.832,167.840 254.200 C 167.988 255.080,168.422 256.430,168.805 257.200 C 169.189 257.970,169.626 259.173,169.777 259.872 C 169.928 260.572,170.291 261.343,170.583 261.586 C 170.876 261.829,171.719 263.040,172.457 264.277 C 173.864 266.633,178.537 271.553,180.848 273.111 C 184.057 275.274,185.173 275.937,186.059 276.206 C 186.576 276.363,187.540 276.815,188.200 277.210 C 188.860 277.606,190.300 278.059,191.400 278.217 C 192.500 278.375,193.920 278.768,194.556 279.091 C 196.240 279.947,204.355 279.952,207.000 279.100 C 208.100 278.745,209.810 278.334,210.800 278.185 C 211.790 278.037,213.140 277.595,213.800 277.203 C 214.460 276.812,215.424 276.363,215.941 276.206 C 216.903 275.914,219.323 274.440,220.400 273.491 C 220.730 273.200,221.492 272.653,222.092 272.276 C 223.615 271.322,228.400 266.552,228.400 265.990 C 228.400 265.735,228.770 265.048,229.221 264.463 C 230.782 262.443,231.991 260.375,232.246 259.290 C 232.387 258.690,232.831 257.652,233.233 256.982 C 233.635 256.312,234.107 254.608,234.282 253.194 C 234.730 249.570,234.589 249.613,246.038 249.606 C 254.682 249.600,255.532 249.662,256.139 250.332 C 256.503 250.735,256.718 251.149,256.616 251.251 C 256.513 251.353,256.139 253.672,255.783 256.403 C 255.428 259.135,254.952 261.717,254.725 262.140 C 254.498 262.564,254.069 264.885,253.771 267.297 C 253.473 269.709,253.053 271.895,252.838 272.155 C 252.622 272.414,252.175 274.819,251.845 277.499 C 251.514 280.180,251.049 282.734,250.813 283.176 C 250.577 283.617,250.120 285.977,249.798 288.419 C 249.476 290.860,248.962 293.610,248.657 294.529 C 248.352 295.448,247.983 297.305,247.836 298.656 C 247.401 302.673,246.008 302.400,266.910 302.400 L 284.962 302.400 286.281 303.678 C 288.056 305.399,288.039 306.770,286.227 308.153 L 284.853 309.200 187.764 309.200 L 90.676 309.200 89.338 308.180 C 87.583 306.841,87.523 305.215,89.169 303.569 L 90.338 302.400 121.741 302.400 C 149.536 302.400,153.214 302.329,153.761 301.782 C 154.492 301.051,154.322 298.916,153.187 294.600 C 152.782 293.060,152.328 290.540,152.177 289.000 C 152.026 287.460,151.658 285.464,151.358 284.565 C 151.058 283.666,150.550 280.928,150.228 278.479 C 149.906 276.031,149.479 273.706,149.278 273.314 C 148.947 272.664,148.495 270.026,147.786 264.600 C 147.643 263.500,147.353 262.391,147.143 262.135 C 146.932 261.879,146.570 259.899,146.338 257.735 C 146.105 255.571,145.655 253.170,145.337 252.401 C 144.254 249.782,144.935 249.600,155.825 249.600 C 161.954 249.600,165.506 249.756,166.162 250.055 M295.000 301.980 C 292.554 302.988,291.829 305.955,293.437 308.384 C 294.712 310.310,296.026 310.549,304.185 310.340 L 309.662 310.200 311.031 308.706 C 312.931 306.633,312.883 305.189,310.847 303.153 L 309.294 301.600 302.547 301.625 C 298.836 301.639,295.440 301.799,295.000 301.980 M310.213 303.787 C 311.989 305.562,311.991 306.688,310.221 308.100 L 308.843 309.200 302.049 309.200 L 295.254 309.200 294.427 308.038 C 293.290 306.441,293.391 305.109,294.760 303.642 L 295.921 302.400 302.374 302.400 L 308.827 302.400 310.213 303.787 " stroke="none" fill="#721414" fill-rule="evenodd"></path><path id="path4" d="M171.232 116.605 C 170.259 116.908,167.970 117.339,166.145 117.562 C 164.320 117.785,162.056 118.312,161.114 118.733 C 160.171 119.154,158.743 119.617,157.940 119.760 C 157.137 119.904,156.261 120.285,155.994 120.608 C 155.726 120.930,154.763 121.393,153.853 121.636 C 152.944 121.879,151.878 122.420,151.484 122.839 C 151.091 123.257,150.531 123.600,150.239 123.600 C 149.739 123.600,147.967 124.826,145.497 126.882 C 142.976 128.981,140.455 131.901,139.524 133.800 C 139.093 134.680,138.486 135.850,138.176 136.400 C 136.641 139.121,137.897 140.400,142.103 140.400 C 145.323 140.400,145.389 140.369,147.200 137.976 C 148.867 135.774,152.803 132.000,153.433 132.000 C 153.759 132.000,154.121 131.750,154.238 131.445 C 154.355 131.139,155.250 130.584,156.226 130.211 C 157.202 129.839,158.000 129.387,158.000 129.207 C 158.000 129.027,158.945 128.654,160.100 128.378 C 161.255 128.103,162.830 127.561,163.600 127.175 C 164.370 126.789,166.370 126.354,168.045 126.208 C 169.720 126.062,171.585 125.685,172.191 125.371 C 173.695 124.591,182.332 124.591,185.027 125.371 C 186.112 125.685,188.260 126.066,189.800 126.217 C 191.340 126.368,193.410 126.822,194.400 127.226 C 195.390 127.631,196.944 128.151,197.853 128.384 C 198.763 128.616,199.720 129.063,199.981 129.377 C 200.242 129.691,200.969 130.061,201.596 130.199 C 202.223 130.337,203.191 130.844,203.746 131.325 C 204.301 131.806,205.590 132.830,206.610 133.600 C 207.630 134.370,208.977 135.720,209.603 136.600 C 212.114 140.129,212.545 140.400,215.642 140.400 C 220.332 140.400,221.096 139.075,218.900 134.742 C 217.041 131.074,209.604 123.600,207.813 123.600 C 207.561 123.600,206.745 123.150,206.000 122.600 C 205.255 122.050,204.344 121.600,203.976 121.600 C 203.609 121.600,202.858 121.246,202.309 120.814 C 201.759 120.382,200.520 119.851,199.555 119.634 C 198.590 119.417,197.237 118.959,196.548 118.615 C 195.860 118.271,193.790 117.803,191.948 117.575 C 190.107 117.347,187.712 116.899,186.627 116.580 C 184.012 115.811,173.726 115.827,171.232 116.605 M188.679 118.384 C 191.363 118.606,193.527 118.992,194.079 119.346 C 194.586 119.672,196.047 120.128,197.326 120.360 C 198.605 120.593,200.114 121.146,200.680 121.591 C 201.245 122.036,202.121 122.400,202.625 122.400 C 203.130 122.400,203.814 122.672,204.146 123.003 C 204.478 123.335,205.526 123.968,206.475 124.410 C 208.362 125.288,210.115 126.504,211.504 127.900 C 211.997 128.395,212.568 128.800,212.773 128.800 C 212.978 128.800,213.257 129.151,213.394 129.580 C 213.530 130.008,213.983 130.467,214.400 130.600 C 214.817 130.733,215.266 131.177,215.396 131.587 C 215.526 131.998,216.031 132.839,216.516 133.456 C 219.137 136.782,218.669 138.809,215.286 138.781 C 213.079 138.764,212.959 138.706,211.800 137.121 C 209.716 134.269,207.076 131.903,203.640 129.810 C 203.288 129.595,202.360 129.010,201.578 128.510 C 200.797 128.009,199.828 127.600,199.426 127.600 C 199.024 127.600,198.098 127.232,197.370 126.781 C 196.642 126.331,194.910 125.784,193.523 125.566 C 192.135 125.348,190.190 124.861,189.200 124.484 C 186.555 123.479,171.445 123.479,168.800 124.484 C 167.810 124.861,165.865 125.348,164.477 125.566 C 163.090 125.784,161.380 126.309,160.677 126.733 C 159.975 127.156,158.764 127.615,157.987 127.753 C 157.210 127.891,156.267 128.363,155.891 128.802 C 155.515 129.241,154.980 129.600,154.703 129.600 C 153.298 129.600,145.941 136.294,145.371 138.092 C 144.968 139.361,139.600 139.121,139.600 137.833 C 139.600 136.007,141.947 131.799,143.700 130.481 C 144.085 130.191,144.400 129.690,144.400 129.367 C 144.400 129.044,144.855 128.607,145.410 128.396 C 145.966 128.185,146.525 127.739,146.653 127.406 C 146.781 127.073,147.123 126.800,147.412 126.800 C 147.702 126.800,148.449 126.371,149.073 125.846 C 149.696 125.321,150.835 124.598,151.603 124.239 C 152.372 123.880,153.450 123.340,154.000 123.039 C 156.555 121.642,159.559 120.469,161.200 120.226 C 162.190 120.079,163.428 119.679,163.952 119.337 C 165.713 118.184,179.733 117.643,188.679 118.384 M221.329 119.227 C 211.174 119.797,210.461 120.405,215.045 124.600 C 218.894 128.123,217.858 127.861,228.881 128.092 C 237.735 128.278,238.921 128.382,240.294 129.098 C 241.136 129.537,242.803 130.106,243.997 130.362 C 245.190 130.618,246.445 131.069,246.784 131.363 C 247.123 131.658,248.075 132.116,248.900 132.380 C 249.725 132.645,250.400 133.008,250.400 133.185 C 250.400 133.363,251.067 133.826,251.883 134.213 C 253.321 134.895,256.577 137.993,258.968 140.954 L 260.135 142.400 263.639 142.400 C 268.239 142.400,269.478 141.209,267.384 138.800 C 267.097 138.470,266.736 137.692,266.581 137.072 C 266.426 136.451,265.962 135.733,265.550 135.476 C 265.137 135.218,264.800 134.792,264.800 134.528 C 264.800 133.299,260.082 128.761,256.766 126.800 C 255.835 126.250,254.476 125.403,253.745 124.918 C 253.014 124.432,251.648 123.831,250.708 123.580 C 249.769 123.330,248.717 122.874,248.372 122.566 C 248.027 122.258,246.857 121.836,245.772 121.628 C 244.687 121.420,243.247 120.971,242.571 120.631 C 240.318 119.497,229.394 118.775,221.329 119.227 M239.400 121.252 C 240.060 121.611,241.895 122.120,243.478 122.385 C 245.061 122.649,246.555 123.104,246.798 123.397 C 247.041 123.690,248.154 124.149,249.272 124.417 C 250.390 124.686,251.623 125.223,252.012 125.612 C 252.400 126.000,253.277 126.441,253.959 126.591 C 254.642 126.741,255.200 127.026,255.200 127.224 C 255.200 127.422,255.879 127.930,256.708 128.353 C 258.403 129.218,263.600 134.283,263.600 135.071 C 263.600 135.352,264.050 135.876,264.600 136.237 C 265.265 136.673,265.600 137.260,265.600 137.992 C 265.600 138.597,265.956 139.545,266.391 140.098 L 267.182 141.104 265.941 141.352 C 262.443 142.051,261.086 141.716,259.598 139.786 C 258.328 138.138,256.812 136.502,254.586 134.377 C 254.138 133.950,253.581 133.600,253.348 133.600 C 253.115 133.600,252.604 133.247,252.214 132.815 C 251.823 132.383,250.874 131.823,250.105 131.569 C 249.336 131.315,248.368 130.768,247.954 130.354 C 247.539 129.939,246.726 129.600,246.147 129.600 C 245.568 129.600,244.501 129.233,243.776 128.785 C 242.933 128.264,241.210 127.829,238.993 127.577 C 237.087 127.360,235.013 126.917,234.384 126.592 C 233.502 126.136,231.635 126.000,226.239 126.000 C 218.689 126.000,217.897 125.835,215.918 123.856 C 214.433 122.372,214.548 121.107,216.200 120.735 C 218.886 120.132,238.127 120.560,239.400 121.252 M169.031 132.032 C 168.169 132.243,167.269 132.576,167.031 132.772 C 166.794 132.968,165.880 133.251,165.000 133.402 C 164.120 133.552,162.929 134.005,162.354 134.409 C 161.779 134.814,160.690 135.402,159.936 135.717 C 159.181 136.033,157.885 136.913,157.054 137.674 C 154.267 140.227,154.029 140.200,179.000 140.200 C 203.957 140.200,203.732 140.226,200.957 137.684 C 200.132 136.928,198.725 135.965,197.829 135.542 C 196.933 135.119,195.750 134.512,195.200 134.192 C 194.650 133.873,193.875 133.609,193.478 133.606 C 193.081 133.603,191.911 133.197,190.878 132.704 C 188.788 131.707,172.419 131.204,169.031 132.032 M221.561 132.186 C 220.327 133.467,222.414 139.177,224.419 140.008 C 226.193 140.743,245.815 140.358,246.599 139.573 C 247.320 138.852,244.234 135.600,242.828 135.600 C 242.432 135.600,241.653 135.242,241.097 134.805 C 240.541 134.368,239.124 133.804,237.947 133.551 C 236.771 133.299,235.390 132.819,234.879 132.484 C 233.413 131.523,222.435 131.278,221.561 132.186 M187.400 133.281 C 188.060 133.619,189.751 134.095,191.158 134.338 C 192.564 134.581,194.028 135.063,194.410 135.409 C 194.793 135.755,195.757 136.218,196.553 136.438 C 197.714 136.759,198.000 137.032,198.000 137.819 L 198.000 138.800 179.000 138.800 L 160.000 138.800 160.010 137.900 C 160.023 136.779,164.339 134.615,167.400 134.195 C 168.500 134.044,169.760 133.725,170.200 133.486 C 172.474 132.251,185.097 132.100,187.400 133.281 M231.250 133.181 C 232.472 133.610,234.585 134.141,235.947 134.360 C 237.308 134.580,238.865 135.108,239.407 135.534 C 239.950 135.961,241.025 136.428,241.797 136.573 C 242.948 136.789,243.200 137.012,243.200 137.818 L 243.200 138.800 234.097 138.800 L 224.994 138.800 223.903 136.994 C 222.676 134.961,222.198 133.450,222.586 132.823 C 223.042 132.084,228.807 132.322,231.250 133.181 M197.936 218.560 C 197.351 218.865,195.926 219.245,194.769 219.404 C 186.348 220.562,177.127 230.123,175.366 239.523 C 175.013 241.407,174.558 243.385,174.355 243.919 C 174.104 244.578,174.178 245.680,174.585 247.345 C 174.914 248.695,175.375 251.041,175.609 252.559 C 175.852 254.135,176.370 255.744,176.817 256.313 C 177.248 256.860,177.603 257.509,177.607 257.754 C 177.623 258.737,180.079 261.963,182.817 264.600 C 186.022 267.685,186.530 268.087,187.760 268.512 C 188.442 268.747,189.180 269.179,189.400 269.470 C 189.620 269.761,190.700 270.253,191.800 270.562 C 192.900 270.872,194.610 271.431,195.600 271.804 C 198.319 272.828,207.147 272.483,209.394 271.265 C 210.271 270.789,211.382 270.400,211.863 270.400 C 212.345 270.400,213.247 269.981,213.869 269.468 C 214.491 268.956,215.333 268.414,215.740 268.265 C 218.588 267.223,223.938 261.310,225.931 257.000 C 228.561 251.315,229.297 240.554,227.298 237.006 C 226.804 236.129,226.400 235.149,226.400 234.827 C 226.400 233.852,222.334 227.871,220.607 226.307 C 219.943 225.706,219.045 224.896,218.612 224.507 C 217.483 223.495,213.897 221.200,213.445 221.200 C 213.235 221.200,212.779 220.950,212.431 220.645 C 212.084 220.340,210.540 219.817,209.000 219.482 C 207.460 219.147,205.480 218.681,204.600 218.446 C 202.360 217.848,199.197 217.902,197.936 218.560 M210.570 221.403 C 211.729 221.951,212.857 222.400,213.076 222.400 C 213.296 222.400,213.999 222.850,214.638 223.400 C 215.277 223.949,216.027 224.399,216.305 224.400 C 216.905 224.400,221.600 228.967,221.600 229.550 C 221.600 229.773,221.929 230.190,222.331 230.477 C 222.734 230.765,223.259 231.571,223.500 232.268 C 223.740 232.965,224.310 233.910,224.768 234.368 C 225.226 234.826,225.600 235.622,225.600 236.137 C 225.600 236.653,225.985 238.138,226.457 239.437 C 227.673 242.792,227.681 248.656,226.472 251.200 C 226.002 252.190,225.614 253.550,225.609 254.222 C 225.604 254.895,225.150 256.055,224.600 256.800 C 224.050 257.545,223.600 258.322,223.600 258.525 C 223.600 258.888,222.498 260.315,219.907 263.310 C 219.188 264.141,218.060 265.113,217.400 265.470 C 216.740 265.827,215.965 266.452,215.677 266.860 C 215.390 267.267,214.833 267.600,214.439 267.600 C 214.046 267.600,213.401 267.956,213.007 268.392 C 212.613 268.828,211.640 269.291,210.845 269.420 C 210.050 269.550,208.140 270.025,206.600 270.476 C 203.586 271.357,198.109 271.315,196.393 270.396 C 195.937 270.152,194.536 269.785,193.281 269.581 C 192.027 269.378,190.800 268.938,190.555 268.604 C 190.310 268.270,189.500 267.790,188.755 267.538 C 187.384 267.074,187.087 266.871,185.091 265.037 C 184.481 264.477,183.626 263.828,183.191 263.595 C 182.756 263.362,182.400 262.918,182.400 262.609 C 182.400 262.299,182.066 261.810,181.657 261.523 C 181.249 261.235,180.785 260.589,180.626 260.087 C 180.468 259.585,179.902 258.704,179.369 258.129 C 178.836 257.554,178.399 256.794,178.399 256.442 C 178.398 256.089,178.018 255.178,177.554 254.418 C 175.927 251.748,175.694 239.937,177.218 237.400 C 177.615 236.740,178.155 235.345,178.417 234.300 C 178.680 233.255,179.049 232.400,179.237 232.400 C 179.425 232.400,179.837 231.905,180.151 231.300 C 180.892 229.876,185.876 224.892,187.300 224.151 C 187.905 223.837,188.400 223.412,188.400 223.208 C 188.400 223.003,189.032 222.718,189.803 222.573 C 190.575 222.428,191.652 221.959,192.196 221.531 C 194.522 219.702,206.792 219.616,210.570 221.403 " stroke="none" fill="#9ca4ac" fill-rule="evenodd"></path></g></svg>